# Blender v2.77 (sub 0) OBJ File: 'uglypot.blend'
# www.blender.org
o Cube
v 1.000000 -1.000000 -1.000000
v 1.000000 -1.000000 1.000000
v -1.000000 -1.000000 1.000000
v -1.000000 -1.000000 -1.000000
v 0.542474 1.000000 -0.542473
v 0.542473 1.000000 0.542474
v -0.542474 1.000000 0.542473
v -0.542474 1.000000 -0.542474
v 0.386069 1.126560 -0.386069
v 0.386069 1.126560 0.386070
v -0.386069 1.126560 0.386069
v -0.386069 1.126560 -0.386069
v 0.267117 0.563938 -0.267117
v 0.267117 0.563938 0.267117
v -0.267117 0.563938 0.267117
v -0.267117 0.563938 -0.267117
v -0.922566 -0.887919 0.887919
v -0.922565 -0.887919 -0.887920
v -0.516319 0.887919 0.481673
v -0.516319 0.887919 -0.481673
v 0.888449 -0.888449 -0.921243
v -0.888448 -0.888449 -0.921243
v 0.481960 0.888449 -0.514754
v -0.481960 0.888449 -0.514754
v 0.921774 -0.892505 -0.892504
v 0.921774 -0.892505 0.892505
v 0.513430 0.892505 -0.484160
v 0.513429 0.892505 0.484161
v 0.895623 -0.895623 0.916299
v -0.895623 -0.895623 0.916299
v 0.485852 0.895623 0.506529
v -0.485852 0.895623 0.506528
v 0.326270 1.085406 -0.401267
v -0.326270 1.085406 -0.401267
v 0.225743 0.609930 -0.300740
v -0.225743 0.609930 -0.300740
v -0.389727 1.076627 0.317541
v -0.389727 1.076627 -0.317541
v -0.291889 0.613872 0.219703
v -0.291889 0.613872 -0.219703
v 0.322510 1.080248 0.402333
v -0.322511 1.080248 0.402333
v 0.223141 0.610251 0.302964
v -0.223142 0.610251 0.302964
v 0.396127 1.085411 -0.329596
v 0.396126 1.085411 0.329597
v 0.294574 0.605087 -0.228044
v 0.294574 0.605087 0.228045
v 0.120794 0.668661 -0.120794
v 0.120794 0.668661 0.120795
v -0.120795 0.668661 -0.120794
v -0.120795 0.668661 0.120795
v 0.548265 0.946407 0.520435
v 0.981201 -0.946098 0.953370
v 0.981201 -0.946098 -0.939135
v 0.548265 0.946407 -0.506199
v -0.937668 -0.947965 0.976180
v 0.957956 -0.947965 0.976181
v 0.524306 0.947659 0.542532
v -0.504019 0.947659 0.542532
v -0.546529 0.943822 0.523543
v -0.546528 0.943822 -0.500604
v -0.978415 -0.944097 0.955429
v -0.978414 -0.944097 -0.932490
v 0.506307 0.944071 -0.549606
v 0.938315 -0.944378 -0.981614
v -0.950134 -0.944378 -0.981615
v -0.518126 0.944071 -0.549607
vt 0.5297 0.1097
vt 0.8329 0.3654
vt 0.6441 0.3654
vt 0.4080 0.9980
vt 0.0002 0.0115
vt 0.5291 0.0116
vt -0.0007 -0.0026
vt 0.4136 0.9992
vt 0.1222 0.9992
vt 0.4159 0.9997
vt 0.0022 -0.0008
vt 0.5386 -0.0008
vt 0.4137 0.9992
vt 0.0011 0.0014
vt 0.5361 0.0014
vt 0.8018 0.8914
vt 0.4881 0.3892
vt 0.7447 0.3892
vt 0.4364 0.8923
vt 0.7436 0.4007
vt 0.7995 0.8923
vt 0.4265 0.9013
vt 0.7464 0.3892
vt 0.8046 0.9013
vt 0.4347 0.9010
vt 0.7524 0.3945
vt 0.8096 0.9024
vt 0.9549 0.0819
vt 0.9999 0.0001
vt 0.9999 0.0819
vt 0.5284 0.1095
vt 0.8316 0.3653
vt 0.6428 0.3653
vt 0.9464 0.1095
vt 0.6429 0.3643
vt 0.5287 0.1082
vt 0.9471 0.1074
vt 0.6443 0.3653
vt 0.5294 0.1103
vt 0.9473 0.1097
vt 0.1211 0.9980
vt 0.5364 -0.0026
vt 0.1249 0.9997
vt 0.1235 0.9992
vt 0.4309 0.8914
vt 0.4924 0.4007
vt 0.4847 0.3892
vt 0.4931 0.3936
vt 0.9549 0.0001
vt 0.9460 0.1095
vt 0.8317 0.3649
vt 0.8332 0.3640
vt 0.0005 0.6474
vt 0.6474 0.0005
vt 0.6474 0.6474
vt 0.3515 0.7798
vt 0.0511 0.7147
vt 0.3009 0.7147
vt 0.3526 0.8005
vt 0.9798 0.8189
vt 0.3676 0.8189
vt 0.9995 0.7809
vt 0.3727 0.7994
vt 0.3526 0.7809
vt 0.6124 0.8470
vt 0.9498 0.8652
vt 0.6186 0.8652
vt 0.6123 0.9285
vt 0.9515 0.9467
vt 0.6202 0.9467
vt 0.8774 0.7136
vt 0.7188 0.6947
vt 0.8631 0.6947
vt 0.3526 0.7136
vt 0.6529 0.6485
vt 0.7035 0.7136
vt 0.0005 0.6485
vt 0.3009 0.7136
vt 0.0511 0.7136
vt 0.0005 0.7809
vt 0.3009 0.8459
vt 0.0511 0.8459
vt 0.8224 0.9712
vt 0.9826 0.9552
vt 0.9952 0.9712
vt 0.9492 0.3826
vt 0.9301 0.5528
vt 0.9301 0.3966
vt 0.9502 0.5736
vt 0.9684 0.7479
vt 0.9502 0.7636
vt 0.7572 0.6805
vt 0.7745 0.0240
vt 0.7745 0.6658
vt 0.0005 0.9746
vt 0.6256 0.9552
vt 0.6474 0.9746
vt 0.9171 0.6449
vt 0.9062 0.0237
vt 0.9171 0.0005
vt 0.8928 0.6805
vt 0.8811 0.0225
vt 0.8928 0.0005
vt 0.0005 0.9946
vt 0.6275 0.9757
vt 0.6475 0.9946
vt 0.8481 0.6805
vt 0.8635 0.0233
vt 0.8635 0.6653
vt 0.6138 0.8922
vt 0.9530 0.8747
vt 0.9647 0.8922
vt 0.8939 0.6631
vt 0.9051 0.0212
vt 0.9051 0.6474
vt 0.8800 0.6804
vt 0.8646 0.0227
vt 0.8800 0.0005
vt 0.9657 0.9186
vt 0.6272 0.9017
vt 0.9598 0.9017
vt 0.8132 0.6805
vt 0.8294 0.0226
vt 0.8294 0.6670
vt 0.9290 0.6375
vt 0.9182 0.0227
vt 0.9290 0.0005
vt 0.8213 0.9552
vt 0.6619 0.9736
vt 0.6485 0.9552
vt 0.9686 0.0005
vt 0.9504 0.1748
vt 0.9504 0.0143
vt 0.9355 0.7509
vt 0.7050 0.7367
vt 0.9161 0.7367
vt 0.9502 0.3826
vt 0.9693 0.5528
vt 0.9502 0.5725
vt 0.8213 0.9757
vt 0.6639 0.9937
vt 0.6485 0.9757
vt 0.6849 0.8362
vt 0.9125 0.8200
vt 0.9346 0.8362
vt 0.9347 0.7639
vt 0.7056 0.7798
vt 0.6850 0.7639
vt 0.9493 0.1916
vt 0.9301 0.3641
vt 0.9301 0.2054
vt 0.9301 0.0005
vt 0.9493 0.1730
vt 0.9301 0.1905
vt 0.6863 0.7151
vt 0.9177 0.7288
vt 0.7045 0.7288
vt 0.9696 0.0005
vt 0.9861 0.1747
vt 0.9696 0.1905
vt 0.9860 0.5736
vt 0.9695 0.7478
vt 0.9695 0.5856
vt 0.7156 0.6439
vt 0.7364 0.0255
vt 0.7364 0.6323
vt 0.7936 0.6439
vt 0.7756 0.0245
vt 0.7936 0.0005
vt 0.6127 0.8747
vt 0.0202 0.9006
vt 0.0005 0.8747
vt 0.6846 0.7575
vt 0.3643 0.7367
vt 0.6775 0.7367
vt 0.0005 0.9017
vt 0.5935 0.9274
vt 0.0141 0.9274
vt 0.3526 0.7356
vt 0.6727 0.7151
vt 0.6852 0.7356
vt 0.7947 0.6450
vt 0.8122 0.0238
vt 0.8122 0.6328
vt 0.6699 0.6450
vt 0.6485 0.0253
vt 0.6699 0.0005
vt 0.6924 0.6424
vt 0.6710 0.0265
vt 0.6924 0.0005
vt 0.6838 0.8200
vt 0.3661 0.8406
vt 0.3526 0.8200
vt 0.8305 0.6423
vt 0.8470 0.0249
vt 0.8470 0.6286
vt 0.6112 0.9541
vt 0.0224 0.9285
vt 0.5968 0.9285
vt 0.6114 0.8736
vt 0.0205 0.8470
vt 0.5952 0.8470
vt 0.7375 0.6425
vt 0.7561 0.0255
vt 0.7561 0.6296
vt 0.6839 0.7585
vt 0.3643 0.7798
vt 0.3526 0.7585
vt 0.7145 0.6425
vt 0.6935 0.0263
vt 0.7145 0.0005
vt 0.0005 0.0005
vt 0.0005 0.7798
vt 0.9994 0.8005
vt 0.9859 0.7994
vt 0.9634 0.8470
vt 0.9632 0.9285
vt 0.7046 0.7136
vt 0.4031 0.6485
vt 0.3515 0.6485
vt 0.3515 0.7809
vt 0.8350 0.9552
vt 0.9492 0.5725
vt 0.9684 0.5874
vt 0.7572 0.0005
vt 0.0150 0.9552
vt 0.9063 0.6296
vt 0.8811 0.6645
vt 0.0167 0.9757
vt 0.8481 0.0005
vt 0.6209 0.8747
vt 0.8939 0.0005
vt 0.8646 0.6661
vt 0.6148 0.9186
vt 0.8132 0.0005
vt 0.9182 0.6237
vt 0.8079 0.9736
vt 0.9686 0.1905
vt 0.6857 0.7509
vt 0.9693 0.3966
vt 0.8060 0.9937
vt 0.7071 0.8200
vt 0.9142 0.7798
vt 0.9493 0.3815
vt 0.9493 0.0144
vt 0.9360 0.7151
vt 0.9861 0.0125
vt 0.9860 0.7636
vt 0.7156 0.0005
vt 0.7756 0.6313
vt 0.5976 0.9006
vt 0.3526 0.7575
vt 0.6137 0.9017
vt 0.3584 0.7151
vt 0.7947 0.0005
vt 0.6485 0.6342
vt 0.6710 0.6302
vt 0.6777 0.8406
vt 0.8305 0.0005
vt 0.0005 0.9541
vt 0.0005 0.8736
vt 0.7375 0.0005
vt 0.6760 0.7798
vt 0.6935 0.6304
vn -0.0000 0.8132 0.5820
vn -0.9748 0.2230 -0.0000
vn 0.0000 0.2230 -0.9748
vn 0.9748 0.2230 0.0000
vn -0.0000 0.2230 0.9748
vn -0.0000 0.2069 0.9784
vn 0.9784 0.2069 0.0000
vn 0.0000 0.2069 -0.9784
vn -0.9784 0.2069 -0.0000
vn 0.0000 1.0000 -0.0000
vn 0.5820 0.8132 0.0000
vn -0.5820 0.8132 -0.0000
vn 0.0000 0.8132 -0.5820
vn 0.0000 -1.0000 0.0000
vn -0.6290 0.7774 -0.0000
vn 0.9442 0.3293 0.0000
vn -0.0000 0.4162 0.9093
vn -0.9974 0.0720 -0.0000
vn 0.0000 0.1265 -0.9920
vn 0.0000 0.6121 -0.7908
vn 0.0000 0.7774 -0.6290
vn -0.0000 0.7774 0.6290
vn 0.6290 0.7774 0.0000
vn -0.8318 0.5550 -0.0000
vn 0.9410 0.2477 0.2307
vn 0.4079 0.2706 0.8720
vn -0.9701 0.1862 0.1559
vn -0.9329 0.3602 -0.0000
vn -0.9517 0.1575 -0.2634
vn 0.1480 0.1883 -0.9709
vn 0.0000 0.3138 -0.9495
vn -0.1126 0.1970 -0.9739
vn 0.9942 0.1074 0.0000
vn 0.9667 0.1794 -0.1823
vn 0.9726 0.1928 0.1296
vn -0.0000 0.0011 1.0000
vn 0.2267 0.1676 0.9594
vn -0.3646 0.1276 0.9224
vn -0.0000 0.5902 0.8073
vn -0.4079 0.2706 0.8720
vn -0.0000 -0.3464 0.9381
vn 0.9410 0.2477 -0.2307
vn 0.8958 0.4444 0.0000
vn 0.9973 -0.0731 0.0000
vn 0.0000 -0.3313 -0.9435
vn 0.4197 0.2718 -0.8660
vn -0.4197 0.2718 -0.8660
vn -0.9714 -0.2374 -0.0000
vn -0.8977 0.2643 0.3525
vn -0.8977 0.2643 -0.3525
vn 0.7176 0.0049 -0.6964
vn 0.5882 -0.0501 0.8072
vn 0.6697 0.7426 0.0000
vn 0.8399 -0.5428 0.0000
vn -0.0000 0.7529 0.6581
vn -0.0000 -0.5690 0.8223
vn 0.8448 -0.0720 0.5303
vn -0.6892 0.0081 0.7245
vn -0.7854 0.0383 -0.6178
vn -0.8798 -0.4754 -0.0000
vn -0.5930 -0.0482 0.8038
vn -0.7092 0.7050 -0.0000
vn 0.0000 0.7336 -0.6796
vn -0.7882 -0.0398 -0.6142
vn 0.0000 -0.5310 -0.8474
vn 0.6974 0.0044 -0.7167
vn -0.7882 -0.0398 -0.6141
g Cube_Cube_Wood
s off
f 15/1/1 50/2/1 52/3/1
f 19/4/2 18/5/2 17/6/2
f 21/7/3 24/8/3 23/9/3
f 27/10/4 26/11/4 25/12/4
f 31/13/5 30/14/5 29/15/5
f 33/16/6 36/17/6 35/18/6
f 37/19/7 40/20/7 38/21/7
f 41/22/8 44/23/8 42/24/8
f 45/25/9 48/26/9 46/27/9
f 51/28/10 50/29/10 49/30/10
f 14/31/11 49/32/11 50/33/11
f 15/34/12 51/35/12 16/36/12
f 16/37/13 49/38/13 13/39/13
f 15/1/1 14/40/1 50/2/1
f 19/4/2 20/41/2 18/5/2
f 21/7/3 22/42/3 24/8/3
f 27/10/4 28/43/4 26/11/4
f 31/13/5 32/44/5 30/14/5
f 33/16/6 34/45/6 36/17/6
f 37/19/7 39/46/7 40/20/7
f 41/22/8 43/47/8 44/23/8
f 45/25/9 47/48/9 48/26/9
f 51/28/10 52/49/10 50/29/10
f 14/31/11 13/50/11 49/32/11
f 15/34/12 52/51/12 51/35/12
f 16/37/13 51/52/13 49/38/13
g Cube_Cube_Metal
f 2/53/14 4/54/14 1/55/14
f 8/56/15 11/57/15 12/58/15
f 2/59/16 55/60/16 54/61/16
f 2/62/17 57/63/17 3/64/17
f 7/65/18 62/66/18 61/67/18
f 8/68/19 65/69/19 68/70/19
f 14/71/20 44/72/20 43/73/20
f 8/74/21 9/75/21 5/76/21
f 7/77/22 10/78/22 11/79/22
f 6/80/23 9/81/23 10/82/23
f 14/83/24 47/84/24 13/85/24
f 16/86/25 38/87/25 40/88/25
f 16/89/26 34/90/26 12/91/26
f 8/92/27 64/93/27 62/94/27
f 3/95/28 64/96/28 4/97/28
f 7/98/29 63/99/29 3/100/29
f 8/101/30 67/102/30 4/103/30
f 4/104/31 66/105/31 1/106/31
f 5/107/32 66/108/32 65/109/32
f 6/110/33 56/111/33 5/112/33
f 6/113/34 54/114/34 53/115/34
f 5/116/35 55/117/35 1/118/35
f 6/119/36 60/120/36 59/121/36
f 7/122/37 57/123/37 60/124/37
f 6/125/38 58/126/38 2/127/38
f 13/128/39 36/129/39 16/130/39
f 13/131/40 33/132/40 35/133/40
f 9/134/41 34/135/41 33/136/41
f 15/137/42 37/138/42 11/139/42
f 16/140/43 39/141/43 15/142/43
f 11/143/44 38/144/44 12/145/44
f 10/146/45 42/147/45 11/148/45
f 15/149/46 42/150/46 44/151/46
f 14/152/47 41/153/47 10/154/47
f 10/155/48 45/156/48 46/157/48
f 13/158/49 45/159/49 9/160/49
f 14/161/50 46/162/50 48/163/50
f 53/164/51 26/165/51 28/166/51
f 56/167/52 25/168/52 55/169/52
f 55/170/53 26/171/53 54/172/53
f 56/173/54 28/174/54 27/175/54
f 57/176/55 29/177/55 30/178/55
f 60/179/56 31/180/56 59/181/56
f 60/182/57 30/183/57 32/184/57
f 59/185/58 29/186/58 58/187/58
f 61/188/59 17/189/59 63/190/59
f 62/191/60 19/192/60 61/193/60
f 62/194/61 18/195/61 20/196/61
f 64/197/62 17/198/62 18/199/62
f 66/200/63 22/201/63 21/202/63
f 65/203/64 21/204/64 23/205/64
f 65/206/65 24/207/65 68/208/65
f 68/209/66 22/210/66 67/211/66
f 2/53/14 3/212/14 4/54/14
f 8/56/15 7/213/15 11/57/15
f 2/59/16 1/214/16 55/60/16
f 2/62/17 58/215/17 57/63/17
f 7/65/18 8/216/18 62/66/18
f 8/68/19 5/217/19 65/69/19
f 14/71/20 15/218/20 44/72/20
f 8/74/21 12/219/21 9/75/21
f 7/77/22 6/220/22 10/78/22
f 6/80/23 5/221/23 9/81/23
f 14/83/24 48/222/24 47/84/24
f 16/86/25 12/223/25 38/87/25
f 16/89/26 36/224/26 34/90/26
f 8/92/27 4/225/27 64/93/27
f 3/95/28 63/226/28 64/96/28
f 7/98/29 61/227/29 63/99/29
f 8/101/30 68/228/30 67/102/30
f 4/104/31 67/229/31 66/105/31
f 5/107/32 1/230/32 66/108/32
f 6/110/33 53/231/33 56/111/33
f 6/113/34 2/232/34 54/114/34
f 5/116/35 56/233/35 55/117/35
f 6/119/36 7/234/36 60/120/36
f 7/122/37 3/235/37 57/123/37
f 6/125/38 59/236/38 58/126/38
f 13/128/39 35/237/39 36/129/39
f 13/131/40 9/238/40 33/132/40
f 9/134/41 12/239/41 34/135/41
f 15/137/42 39/240/42 37/138/42
f 16/140/43 40/241/43 39/141/43
f 11/143/44 37/242/44 38/144/44
f 10/146/45 41/243/45 42/147/45
f 15/149/46 11/244/46 42/150/46
f 14/152/47 43/245/47 41/153/47
f 10/155/48 9/246/48 45/156/48
f 13/158/49 47/247/49 45/159/49
f 14/161/50 10/248/50 46/162/50
f 53/164/51 54/249/51 26/165/51
f 56/167/52 27/250/52 25/168/52
f 55/170/53 25/251/53 26/171/53
f 56/173/54 53/252/54 28/174/54
f 57/176/55 58/253/55 29/177/55
f 60/179/56 32/254/56 31/180/56
f 60/182/57 57/255/57 30/183/57
f 59/185/58 31/256/58 29/186/58
f 61/188/59 19/257/59 17/189/59
f 62/191/60 20/258/60 19/192/60
f 62/194/61 64/259/61 18/195/61
f 64/197/62 63/260/62 17/198/62
f 66/200/63 67/261/63 22/201/63
f 65/203/67 66/262/67 21/204/67
f 65/206/65 23/263/65 24/207/65
f 68/209/66 24/264/66 22/210/66
