<?xml version="1.0" encoding="UTF-8" standalone="no"?>
<!DOCTYPE svg PUBLIC "-//W3C//DTD SVG 1.1//EN" "http://www.w3.org/Graphics/SVG/1.1/DTD/svg11.dtd">
<!-- Generiert durch Microsoft Visio, SVG Export IPCoreProjectDiagram.svg Page-1 -->
<svg xmlns="http://www.w3.org/2000/svg" xmlns:xlink="http://www.w3.org/1999/xlink" xmlns:ev="http://www.w3.org/2001/xml-events"
		xmlns:v="http://schemas.microsoft.com/visio/2003/SVGExtensions/" width="21.5in" height="8.5in" viewBox="0 0 1548 612"
		xml:space="preserve" color-interpolation-filters="sRGB" class="st12">
	<v:documentProperties v:langID="1033" v:viewMarkup="false">
		<v:userDefs>
			<v:ud v:nameU="msvSubprocessMaster" v:prompt="" v:val="VT4(Rectangle)"/>
			<v:ud v:nameU="msvNoAutoConnect" v:val="VT0(1):26"/>
		</v:userDefs>
	</v:documentProperties>

	<style type="text/css">
	<![CDATA[
		.st1 {visibility:visible}
		.st2 {fill:#5b9bd5;fill-opacity:0.22;filter:url(#filter_2);stroke:#5b9bd5;stroke-opacity:0.22}
		.st3 {fill:#5b9bd5;stroke:#c7c8c8;stroke-width:0.25}
		.st4 {fill:#feffff;font-family:Calibri;font-size:0.833336em}
		.st5 {fill:#9cc3e5;stroke:#c7c8c8;stroke-width:0.25}
		.st6 {marker-end:url(#mrkr4-18);stroke:#5b9bd5;stroke-linecap:round;stroke-linejoin:round;stroke-width:1}
		.st7 {fill:#5b9bd5;fill-opacity:1;stroke:#5b9bd5;stroke-opacity:1;stroke-width:0.28409090909091}
		.st8 {fill:#a8d08d;stroke:#c7c8c8;stroke-width:0.25}
		.st9 {fill:#833c0b;stroke:#c7c8c8;stroke-width:0.25}
		.st10 {font-size:1em}
		.st11 {fill:#ffc000;stroke:#c7c8c8;stroke-width:0.25}
		.st12 {fill:none;fill-rule:evenodd;font-size:12px;overflow:visible;stroke-linecap:square;stroke-miterlimit:3}
	]]>
	</style>

	<defs id="Markers">
		<g id="lend4">
			<path d="M 2 1 L 0 0 L 2 -1 L 2 1 " style="stroke:none"/>
		</g>
		<marker id="mrkr4-18" class="st7" v:arrowType="4" v:arrowSize="2" v:setback="7.04" refX="-7.04" orient="auto"
				markerUnits="strokeWidth" overflow="visible">
			<use xlink:href="#lend4" transform="scale(-3.52,-3.52) "/>
		</marker>
	</defs>
	<defs id="Filters">
		<filter id="filter_2">
			<feGaussianBlur stdDeviation="2"/>
		</filter>
	</defs>
	<g v:mID="0" v:index="1" v:groupContext="foregroundPage">
		<v:userDefs>
			<v:ud v:nameU="msvThemeOrder" v:val="VT0(0):26"/>
		</v:userDefs>
		<title>Page-1</title>
		<v:pageProperties v:drawingScale="1" v:pageScale="1" v:drawingUnits="0" v:shadowOffsetX="9" v:shadowOffsetY="-9"/>
		<v:layer v:name="Connector" v:index="0"/>
		<g id="shape1-1" v:mID="1" v:groupContext="shape" transform="translate(432,-504)">
			<title>Rounded Rectangle</title>
			<desc>Project Root</desc>
			<v:userDefs>
				<v:ud v:nameU="CTypeTopLeftSnip" v:prompt="" v:val="VT0(0):5"/>
				<v:ud v:nameU="CTypeTopRightSnip" v:prompt="" v:val="VT0(0):5"/>
				<v:ud v:nameU="CTypeBotLeftSnip" v:prompt="" v:val="VT0(0):5"/>
				<v:ud v:nameU="CTypeBotRightSnip" v:prompt="" v:val="VT0(0):5"/>
				<v:ud v:nameU="CornerLockHoriz" v:prompt="" v:val="VT0(1):5"/>
				<v:ud v:nameU="CornerLockVert" v:prompt="" v:val="VT0(1):5"/>
				<v:ud v:nameU="CornerLockDiag" v:prompt="" v:val="VT0(0):5"/>
				<v:ud v:nameU="TopLeftOffset" v:prompt="" v:val="VT0(0.15):1"/>
				<v:ud v:nameU="TopRightOffset" v:prompt="" v:val="VT0(0.15):1"/>
				<v:ud v:nameU="BotLeftOffset" v:prompt="" v:val="VT0(0.15):1"/>
				<v:ud v:nameU="BotRightOffset" v:prompt="" v:val="VT0(0.15):1"/>
				<v:ud v:nameU="visVersion" v:prompt="" v:val="VT0(15):26"/>
			</v:userDefs>
			<v:textBlock v:margins="rect(4,4,4,4)"/>
			<v:textRect cx="54" cy="576" width="108" height="72"/>
			<g id="shadow1-2" v:groupContext="shadow" v:shadowOffsetX="0.345598" v:shadowOffsetY="-1.97279" v:shadowType="1"
					transform="matrix(1,0,0,1,0.345598,1.97279)" class="st1">
				<path d="M10.8 612 L97.2 612 A10.7998 10.7998 -180 0 0 108 601.2 L108 550.8 A10.7998 10.7998 -180 0 0 97.2 540 L10.8
							 540 A10.7998 10.7998 -180 0 0 0 550.8 L0 601.2 A10.7998 10.7998 -180 0 0 10.8 612 Z" class="st2"/>
			</g>
			<path d="M10.8 612 L97.2 612 A10.7998 10.7998 -180 0 0 108 601.2 L108 550.8 A10.7998 10.7998 -180 0 0 97.2 540 L10.8
						 540 A10.7998 10.7998 -180 0 0 0 550.8 L0 601.2 A10.7998 10.7998 -180 0 0 10.8 612 Z" class="st3"/>
			<text x="28.77" y="573" class="st4" v:langID="1033"><v:paragraph v:horizAlign="1"/><v:tabList/>Project Root<v:newlineChar/></text>		</g>
		<g id="shape2-7" v:mID="2" v:groupContext="shape" transform="translate(696.614,-378)">
			<title>Snip Same Side Corner Rectangle</title>
			<desc>API-Headers</desc>
			<v:userDefs>
				<v:ud v:nameU="CTypeTopLeftSnip" v:prompt="" v:val="VT0(1):5"/>
				<v:ud v:nameU="CTypeTopRightSnip" v:prompt="" v:val="VT0(1):5"/>
				<v:ud v:nameU="CTypeBotLeftSnip" v:prompt="" v:val="VT0(1):5"/>
				<v:ud v:nameU="CTypeBotRightSnip" v:prompt="" v:val="VT0(0):5"/>
				<v:ud v:nameU="CornerLockHoriz" v:prompt="" v:val="VT0(1):5"/>
				<v:ud v:nameU="CornerLockVert" v:prompt="" v:val="VT0(0):5"/>
				<v:ud v:nameU="CornerLockDiag" v:prompt="" v:val="VT0(0):5"/>
				<v:ud v:nameU="TopLeftOffset" v:prompt="" v:val="VT0(0.15):1"/>
				<v:ud v:nameU="TopRightOffset" v:prompt="" v:val="VT0(0.15):1"/>
				<v:ud v:nameU="BotLeftOffset" v:prompt="" v:val="VT0(0):1"/>
				<v:ud v:nameU="BotRightOffset" v:prompt="" v:val="VT0(0):1"/>
				<v:ud v:nameU="visVersion" v:prompt="" v:val="VT0(15):26"/>
			</v:userDefs>
			<v:textBlock v:margins="rect(4,4,4,4)"/>
			<v:textRect cx="54" cy="576" width="108" height="72"/>
			<g id="shadow2-8" v:groupContext="shadow" v:shadowOffsetX="0.345598" v:shadowOffsetY="-1.97279" v:shadowType="1"
					transform="matrix(1,0,0,1,0.345598,1.97279)" class="st1">
				<path d="M0 612 L108 612 L108 550.8 L97.2 540 L10.8 540 L0 550.8 L0 612 Z" class="st2"/>
			</g>
			<path d="M0 612 L108 612 L108 550.8 L97.2 540 L10.8 540 L0 550.8 L0 612 Z" class="st5"/>
			<text x="28.92" y="579" class="st4" v:langID="1033"><v:paragraph v:horizAlign="1"/><v:tabList/>API-Headers</text>		</g>
		<g id="shape3-13" v:mID="3" v:groupContext="shape" v:layerMember="0" transform="translate(540,-540)">
			<title>Dynamic connector</title>
			<path d="M0 612 L210.61 612 L210.61 694.96" class="st6"/>
		</g>
		<g id="shape5-19" v:mID="5" v:groupContext="shape" transform="translate(426.614,-378)">
			<title>Rounded Rectangle.5</title>
			<desc>Modules</desc>
			<v:userDefs>
				<v:ud v:nameU="CTypeTopLeftSnip" v:prompt="" v:val="VT0(0):5"/>
				<v:ud v:nameU="CTypeTopRightSnip" v:prompt="" v:val="VT0(0):5"/>
				<v:ud v:nameU="CTypeBotLeftSnip" v:prompt="" v:val="VT0(0):5"/>
				<v:ud v:nameU="CTypeBotRightSnip" v:prompt="" v:val="VT0(0):5"/>
				<v:ud v:nameU="CornerLockHoriz" v:prompt="" v:val="VT0(1):5"/>
				<v:ud v:nameU="CornerLockVert" v:prompt="" v:val="VT0(1):5"/>
				<v:ud v:nameU="CornerLockDiag" v:prompt="" v:val="VT0(0):5"/>
				<v:ud v:nameU="TopLeftOffset" v:prompt="" v:val="VT0(0.15):1"/>
				<v:ud v:nameU="TopRightOffset" v:prompt="" v:val="VT0(0.15):1"/>
				<v:ud v:nameU="BotLeftOffset" v:prompt="" v:val="VT0(0.15):1"/>
				<v:ud v:nameU="BotRightOffset" v:prompt="" v:val="VT0(0.15):1"/>
				<v:ud v:nameU="visVersion" v:prompt="" v:val="VT0(15):26"/>
			</v:userDefs>
			<v:textBlock v:margins="rect(4,4,4,4)"/>
			<v:textRect cx="54" cy="576" width="108" height="72"/>
			<g id="shadow5-20" v:groupContext="shadow" v:shadowOffsetX="0.345598" v:shadowOffsetY="-1.97279" v:shadowType="1"
					transform="matrix(1,0,0,1,0.345598,1.97279)" class="st1">
				<path d="M10.8 612 L97.2 612 A10.7998 10.7998 -180 0 0 108 601.2 L108 550.8 A10.7998 10.7998 -180 0 0 97.2 540 L10.8
							 540 A10.7998 10.7998 -180 0 0 0 550.8 L0 601.2 A10.7998 10.7998 -180 0 0 10.8 612 Z" class="st2"/>
			</g>
			<path d="M10.8 612 L97.2 612 A10.7998 10.7998 -180 0 0 108 601.2 L108 550.8 A10.7998 10.7998 -180 0 0 97.2 540 L10.8
						 540 A10.7998 10.7998 -180 0 0 0 550.8 L0 601.2 A10.7998 10.7998 -180 0 0 10.8 612 Z" class="st5"/>
			<text x="36.24" y="573" class="st4" v:langID="1033"><v:paragraph v:horizAlign="1"/><v:tabList/>Modules<v:newlineChar/></text>		</g>
		<g id="shape11-25" v:mID="11" v:groupContext="shape" transform="translate(156.614,-378)">
			<title>Snip Same Side Corner Rectangle.11</title>
			<desc>Application</desc>
			<v:userDefs>
				<v:ud v:nameU="CTypeTopLeftSnip" v:prompt="" v:val="VT0(1):5"/>
				<v:ud v:nameU="CTypeTopRightSnip" v:prompt="" v:val="VT0(1):5"/>
				<v:ud v:nameU="CTypeBotLeftSnip" v:prompt="" v:val="VT0(1):5"/>
				<v:ud v:nameU="CTypeBotRightSnip" v:prompt="" v:val="VT0(0):5"/>
				<v:ud v:nameU="CornerLockHoriz" v:prompt="" v:val="VT0(1):5"/>
				<v:ud v:nameU="CornerLockVert" v:prompt="" v:val="VT0(0):5"/>
				<v:ud v:nameU="CornerLockDiag" v:prompt="" v:val="VT0(0):5"/>
				<v:ud v:nameU="TopLeftOffset" v:prompt="" v:val="VT0(0.15):1"/>
				<v:ud v:nameU="TopRightOffset" v:prompt="" v:val="VT0(0.15):1"/>
				<v:ud v:nameU="BotLeftOffset" v:prompt="" v:val="VT0(0):1"/>
				<v:ud v:nameU="BotRightOffset" v:prompt="" v:val="VT0(0):1"/>
				<v:ud v:nameU="visVersion" v:prompt="" v:val="VT0(15):26"/>
			</v:userDefs>
			<v:textBlock v:margins="rect(4,4,4,4)"/>
			<v:textRect cx="54" cy="576" width="108" height="72"/>
			<g id="shadow11-26" v:groupContext="shadow" v:shadowOffsetX="0.345598" v:shadowOffsetY="-1.97279" v:shadowType="1"
					transform="matrix(1,0,0,1,0.345598,1.97279)" class="st1">
				<path d="M0 612 L108 612 L108 550.8 L97.2 540 L10.8 540 L0 550.8 L0 612 Z" class="st2"/>
			</g>
			<path d="M0 612 L108 612 L108 550.8 L97.2 540 L10.8 540 L0 550.8 L0 612 Z" class="st5"/>
			<text x="30.96" y="579" class="st4" v:langID="1033"><v:paragraph v:horizAlign="1"/><v:tabList/>Application</text>		</g>
		<g id="shape12-31" v:mID="12" v:groupContext="shape" v:layerMember="0" transform="translate(432,-540)">
			<title>Dynamic connector.12</title>
			<path d="M0 612 L-221.39 612 L-221.39 694.96" class="st6"/>
		</g>
		<g id="shape14-36" v:mID="14" v:groupContext="shape" transform="translate(21.6142,-378)">
			<title>Snip Same Side Corner Rectangle.14</title>
			<desc>Output</desc>
			<v:userDefs>
				<v:ud v:nameU="CTypeTopLeftSnip" v:prompt="" v:val="VT0(1):5"/>
				<v:ud v:nameU="CTypeTopRightSnip" v:prompt="" v:val="VT0(1):5"/>
				<v:ud v:nameU="CTypeBotLeftSnip" v:prompt="" v:val="VT0(1):5"/>
				<v:ud v:nameU="CTypeBotRightSnip" v:prompt="" v:val="VT0(0):5"/>
				<v:ud v:nameU="CornerLockHoriz" v:prompt="" v:val="VT0(1):5"/>
				<v:ud v:nameU="CornerLockVert" v:prompt="" v:val="VT0(0):5"/>
				<v:ud v:nameU="CornerLockDiag" v:prompt="" v:val="VT0(0):5"/>
				<v:ud v:nameU="TopLeftOffset" v:prompt="" v:val="VT0(0.15):1"/>
				<v:ud v:nameU="TopRightOffset" v:prompt="" v:val="VT0(0.15):1"/>
				<v:ud v:nameU="BotLeftOffset" v:prompt="" v:val="VT0(0):1"/>
				<v:ud v:nameU="BotRightOffset" v:prompt="" v:val="VT0(0):1"/>
				<v:ud v:nameU="visVersion" v:prompt="" v:val="VT0(15):26"/>
			</v:userDefs>
			<v:textBlock v:margins="rect(4,4,4,4)"/>
			<v:textRect cx="54" cy="576" width="108" height="72"/>
			<g id="shadow14-37" v:groupContext="shadow" v:shadowOffsetX="0.345598" v:shadowOffsetY="-1.97279" v:shadowType="1"
					transform="matrix(1,0,0,1,0.345598,1.97279)" class="st1">
				<path d="M0 612 L108 612 L108 550.8 L97.2 540 L10.8 540 L0 550.8 L0 612 Z" class="st2"/>
			</g>
			<path d="M0 612 L108 612 L108 550.8 L97.2 540 L10.8 540 L0 550.8 L0 612 Z" class="st8"/>
			<text x="39.46" y="579" class="st4" v:langID="1033"><v:paragraph v:horizAlign="1"/><v:tabList/>Output</text>		</g>
		<g id="shape15-42" v:mID="15" v:groupContext="shape" v:layerMember="0" transform="translate(432,-540)">
			<title>Dynamic connector.15</title>
			<path d="M0 612 L-356.39 612 L-356.39 694.96" class="st6"/>
		</g>
		<g id="shape19-47" v:mID="19" v:groupContext="shape" transform="translate(972,-378)">
			<title>Rounded Rectangle.19</title>
			<desc>External Dependencies</desc>
			<v:userDefs>
				<v:ud v:nameU="CTypeTopLeftSnip" v:prompt="" v:val="VT0(0):5"/>
				<v:ud v:nameU="CTypeTopRightSnip" v:prompt="" v:val="VT0(0):5"/>
				<v:ud v:nameU="CTypeBotLeftSnip" v:prompt="" v:val="VT0(0):5"/>
				<v:ud v:nameU="CTypeBotRightSnip" v:prompt="" v:val="VT0(0):5"/>
				<v:ud v:nameU="CornerLockHoriz" v:prompt="" v:val="VT0(1):5"/>
				<v:ud v:nameU="CornerLockVert" v:prompt="" v:val="VT0(1):5"/>
				<v:ud v:nameU="CornerLockDiag" v:prompt="" v:val="VT0(0):5"/>
				<v:ud v:nameU="TopLeftOffset" v:prompt="" v:val="VT0(0.15):1"/>
				<v:ud v:nameU="TopRightOffset" v:prompt="" v:val="VT0(0.15):1"/>
				<v:ud v:nameU="BotLeftOffset" v:prompt="" v:val="VT0(0.15):1"/>
				<v:ud v:nameU="BotRightOffset" v:prompt="" v:val="VT0(0.15):1"/>
				<v:ud v:nameU="visVersion" v:prompt="" v:val="VT0(15):26"/>
			</v:userDefs>
			<v:textBlock v:margins="rect(4,4,4,4)"/>
			<v:textRect cx="54" cy="576" width="108" height="72"/>
			<g id="shadow19-48" v:groupContext="shadow" v:shadowOffsetX="0.345598" v:shadowOffsetY="-1.97279" v:shadowType="1"
					transform="matrix(1,0,0,1,0.345598,1.97279)" class="st1">
				<path d="M10.8 612 L97.2 612 A10.7998 10.7998 -180 0 0 108 601.2 L108 550.8 A10.7998 10.7998 -180 0 0 97.2 540 L10.8
							 540 A10.7998 10.7998 -180 0 0 0 550.8 L0 601.2 A10.7998 10.7998 -180 0 0 10.8 612 Z" class="st2"/>
			</g>
			<path d="M10.8 612 L97.2 612 A10.7998 10.7998 -180 0 0 108 601.2 L108 550.8 A10.7998 10.7998 -180 0 0 97.2 540 L10.8
						 540 A10.7998 10.7998 -180 0 0 0 550.8 L0 601.2 A10.7998 10.7998 -180 0 0 10.8 612 Z" class="st9"/>
			<text x="7.43" y="579" class="st4" v:langID="1033"><v:paragraph v:horizAlign="1"/><v:tabList/>Extern<tspan class="st10"
						v:langID="1031">al</tspan> Dependencies</text>		</g>
		<g id="shape20-54" v:mID="20" v:groupContext="shape" transform="translate(837,-234)">
			<title>Snip Same Side Corner Rectangle.20</title>
			<desc>Includes</desc>
			<v:userDefs>
				<v:ud v:nameU="CTypeTopLeftSnip" v:prompt="" v:val="VT0(1):5"/>
				<v:ud v:nameU="CTypeTopRightSnip" v:prompt="" v:val="VT0(1):5"/>
				<v:ud v:nameU="CTypeBotLeftSnip" v:prompt="" v:val="VT0(1):5"/>
				<v:ud v:nameU="CTypeBotRightSnip" v:prompt="" v:val="VT0(0):5"/>
				<v:ud v:nameU="CornerLockHoriz" v:prompt="" v:val="VT0(1):5"/>
				<v:ud v:nameU="CornerLockVert" v:prompt="" v:val="VT0(0):5"/>
				<v:ud v:nameU="CornerLockDiag" v:prompt="" v:val="VT0(0):5"/>
				<v:ud v:nameU="TopLeftOffset" v:prompt="" v:val="VT0(0.15):1"/>
				<v:ud v:nameU="TopRightOffset" v:prompt="" v:val="VT0(0.15):1"/>
				<v:ud v:nameU="BotLeftOffset" v:prompt="" v:val="VT0(0):1"/>
				<v:ud v:nameU="BotRightOffset" v:prompt="" v:val="VT0(0):1"/>
				<v:ud v:nameU="visVersion" v:prompt="" v:val="VT0(15):26"/>
			</v:userDefs>
			<v:textBlock v:margins="rect(4,4,4,4)"/>
			<v:textRect cx="54" cy="576" width="108" height="72"/>
			<g id="shadow20-55" v:groupContext="shadow" v:shadowOffsetX="0.345598" v:shadowOffsetY="-1.97279" v:shadowType="1"
					transform="matrix(1,0,0,1,0.345598,1.97279)" class="st1">
				<path d="M0 612 L108 612 L108 550.8 L97.2 540 L10.8 540 L0 550.8 L0 612 Z" class="st2"/>
			</g>
			<path d="M0 612 L108 612 L108 550.8 L97.2 540 L10.8 540 L0 550.8 L0 612 Z" class="st9"/>
			<text x="37.15" y="579" class="st4" v:langID="1033"><v:paragraph v:horizAlign="1"/><v:tabList/>Includes</text>		</g>
		<g id="shape21-60" v:mID="21" v:groupContext="shape" transform="translate(972,-234)">
			<title>Snip Same Side Corner Rectangle.21</title>
			<desc>Libraries</desc>
			<v:userDefs>
				<v:ud v:nameU="CTypeTopLeftSnip" v:prompt="" v:val="VT0(1):5"/>
				<v:ud v:nameU="CTypeTopRightSnip" v:prompt="" v:val="VT0(1):5"/>
				<v:ud v:nameU="CTypeBotLeftSnip" v:prompt="" v:val="VT0(1):5"/>
				<v:ud v:nameU="CTypeBotRightSnip" v:prompt="" v:val="VT0(0):5"/>
				<v:ud v:nameU="CornerLockHoriz" v:prompt="" v:val="VT0(1):5"/>
				<v:ud v:nameU="CornerLockVert" v:prompt="" v:val="VT0(0):5"/>
				<v:ud v:nameU="CornerLockDiag" v:prompt="" v:val="VT0(0):5"/>
				<v:ud v:nameU="TopLeftOffset" v:prompt="" v:val="VT0(0.15):1"/>
				<v:ud v:nameU="TopRightOffset" v:prompt="" v:val="VT0(0.15):1"/>
				<v:ud v:nameU="BotLeftOffset" v:prompt="" v:val="VT0(0):1"/>
				<v:ud v:nameU="BotRightOffset" v:prompt="" v:val="VT0(0):1"/>
				<v:ud v:nameU="visVersion" v:prompt="" v:val="VT0(15):26"/>
			</v:userDefs>
			<v:textBlock v:margins="rect(4,4,4,4)"/>
			<v:textRect cx="54" cy="576" width="108" height="72"/>
			<g id="shadow21-61" v:groupContext="shadow" v:shadowOffsetX="0.345598" v:shadowOffsetY="-1.97279" v:shadowType="1"
					transform="matrix(1,0,0,1,0.345598,1.97279)" class="st1">
				<path d="M0 612 L108 612 L108 550.8 L97.2 540 L10.8 540 L0 550.8 L0 612 Z" class="st2"/>
			</g>
			<path d="M0 612 L108 612 L108 550.8 L97.2 540 L10.8 540 L0 550.8 L0 612 Z" class="st9"/>
			<text x="36.65" y="579" class="st4" v:langID="1033"><v:paragraph v:horizAlign="1"/><v:tabList/>Libraries</text>		</g>
		<g id="shape22-66" v:mID="22" v:groupContext="shape" v:layerMember="0" transform="translate(540,-540)">
			<title>Dynamic connector.22</title>
			<path d="M0 612 L486 612 L486 694.96" class="st6"/>
		</g>
		<g id="shape28-71" v:mID="28" v:groupContext="shape" v:layerMember="0" transform="translate(1026,-378)">
			<title>Dynamic connector.28</title>
			<path d="M0 612 L0 648 L-135 648 L-135 676.96" class="st6"/>
		</g>
		<g id="shape29-76" v:mID="29" v:groupContext="shape" v:layerMember="0" transform="translate(1017,-378)">
			<title>Dynamic connector.29</title>
			<path d="M9 612 L9 648 L9 676.96" class="st6"/>
		</g>
		<g id="shape31-81" v:mID="31" v:groupContext="shape" transform="translate(297,-234)">
			<title>Snip Same Side Corner Rectangle.31</title>
			<desc>Module Folders 1...n</desc>
			<v:userDefs>
				<v:ud v:nameU="CTypeTopLeftSnip" v:prompt="" v:val="VT0(1):5"/>
				<v:ud v:nameU="CTypeTopRightSnip" v:prompt="" v:val="VT0(1):5"/>
				<v:ud v:nameU="CTypeBotLeftSnip" v:prompt="" v:val="VT0(1):5"/>
				<v:ud v:nameU="CTypeBotRightSnip" v:prompt="" v:val="VT0(0):5"/>
				<v:ud v:nameU="CornerLockHoriz" v:prompt="" v:val="VT0(1):5"/>
				<v:ud v:nameU="CornerLockVert" v:prompt="" v:val="VT0(0):5"/>
				<v:ud v:nameU="CornerLockDiag" v:prompt="" v:val="VT0(0):5"/>
				<v:ud v:nameU="TopLeftOffset" v:prompt="" v:val="VT0(0.15):1"/>
				<v:ud v:nameU="TopRightOffset" v:prompt="" v:val="VT0(0.15):1"/>
				<v:ud v:nameU="BotLeftOffset" v:prompt="" v:val="VT0(0):1"/>
				<v:ud v:nameU="BotRightOffset" v:prompt="" v:val="VT0(0):1"/>
				<v:ud v:nameU="visVersion" v:prompt="" v:val="VT0(15):26"/>
			</v:userDefs>
			<v:textBlock v:margins="rect(4,4,4,4)"/>
			<v:textRect cx="54" cy="576" width="108" height="72"/>
			<g id="shadow31-82" v:groupContext="shadow" v:shadowOffsetX="0.345598" v:shadowOffsetY="-1.97279" v:shadowType="1"
					transform="matrix(1,0,0,1,0.345598,1.97279)" class="st1">
				<path d="M0 612 L108 612 L108 550.8 L97.2 540 L10.8 540 L0 550.8 L0 612 Z" class="st2"/>
			</g>
			<path d="M0 612 L108 612 L108 550.8 L97.2 540 L10.8 540 L0 550.8 L0 612 Z" class="st5"/>
			<text x="12.1" y="579" class="st4" v:langID="1033"><v:paragraph v:horizAlign="1"/><v:tabList/>Module <tspan
						class="st10" v:langID="1031">Folders 1...n</tspan></text>		</g>
		<g id="shape32-88" v:mID="32" v:groupContext="shape" v:layerMember="0" transform="translate(480.614,-378)">
			<title>Dynamic connector.32</title>
			<path d="M0 612 L0 632.25 L-129.61 632.25 L-129.61 676.96" class="st6"/>
		</g>
		<g id="shape39-93" v:mID="39" v:groupContext="shape" transform="translate(162,-234)">
			<title>Snip Same Side Corner Rectangle.39</title>
			<desc>IPCore</desc>
			<v:userDefs>
				<v:ud v:nameU="CTypeTopLeftSnip" v:prompt="" v:val="VT0(1):5"/>
				<v:ud v:nameU="CTypeTopRightSnip" v:prompt="" v:val="VT0(1):5"/>
				<v:ud v:nameU="CTypeBotLeftSnip" v:prompt="" v:val="VT0(1):5"/>
				<v:ud v:nameU="CTypeBotRightSnip" v:prompt="" v:val="VT0(0):5"/>
				<v:ud v:nameU="CornerLockHoriz" v:prompt="" v:val="VT0(1):5"/>
				<v:ud v:nameU="CornerLockVert" v:prompt="" v:val="VT0(0):5"/>
				<v:ud v:nameU="CornerLockDiag" v:prompt="" v:val="VT0(0):5"/>
				<v:ud v:nameU="TopLeftOffset" v:prompt="" v:val="VT0(0.15):1"/>
				<v:ud v:nameU="TopRightOffset" v:prompt="" v:val="VT0(0.15):1"/>
				<v:ud v:nameU="BotLeftOffset" v:prompt="" v:val="VT0(0):1"/>
				<v:ud v:nameU="BotRightOffset" v:prompt="" v:val="VT0(0):1"/>
				<v:ud v:nameU="visVersion" v:prompt="" v:val="VT0(15):26"/>
			</v:userDefs>
			<v:textBlock v:margins="rect(4,4,4,4)"/>
			<v:textRect cx="54" cy="576" width="108" height="72"/>
			<g id="shadow39-94" v:groupContext="shadow" v:shadowOffsetX="0.345598" v:shadowOffsetY="-1.97279" v:shadowType="1"
					transform="matrix(1,0,0,1,0.345598,1.97279)" class="st1">
				<path d="M0 612 L108 612 L108 550.8 L97.2 540 L10.8 540 L0 550.8 L0 612 Z" class="st2"/>
			</g>
			<path d="M0 612 L108 612 L108 550.8 L97.2 540 L10.8 540 L0 550.8 L0 612 Z" class="st5"/>
			<text x="40.62" y="579" class="st4" v:langID="1033"><v:paragraph v:horizAlign="1"/><v:tabList/>IPCore</text>		</g>
		<g id="shape40-99" v:mID="40" v:groupContext="shape" transform="translate(27,-234)">
			<title>Snip Same Side Corner Rectangle.40</title>
			<desc>Injector</desc>
			<v:userDefs>
				<v:ud v:nameU="CTypeTopLeftSnip" v:prompt="" v:val="VT0(1):5"/>
				<v:ud v:nameU="CTypeTopRightSnip" v:prompt="" v:val="VT0(1):5"/>
				<v:ud v:nameU="CTypeBotLeftSnip" v:prompt="" v:val="VT0(1):5"/>
				<v:ud v:nameU="CTypeBotRightSnip" v:prompt="" v:val="VT0(0):5"/>
				<v:ud v:nameU="CornerLockHoriz" v:prompt="" v:val="VT0(1):5"/>
				<v:ud v:nameU="CornerLockVert" v:prompt="" v:val="VT0(0):5"/>
				<v:ud v:nameU="CornerLockDiag" v:prompt="" v:val="VT0(0):5"/>
				<v:ud v:nameU="TopLeftOffset" v:prompt="" v:val="VT0(0.15):1"/>
				<v:ud v:nameU="TopRightOffset" v:prompt="" v:val="VT0(0.15):1"/>
				<v:ud v:nameU="BotLeftOffset" v:prompt="" v:val="VT0(0):1"/>
				<v:ud v:nameU="BotRightOffset" v:prompt="" v:val="VT0(0):1"/>
				<v:ud v:nameU="visVersion" v:prompt="" v:val="VT0(15):26"/>
			</v:userDefs>
			<v:textBlock v:margins="rect(4,4,4,4)"/>
			<v:textRect cx="54" cy="576" width="108" height="72"/>
			<g id="shadow40-100" v:groupContext="shadow" v:shadowOffsetX="0.345598" v:shadowOffsetY="-1.97279" v:shadowType="1"
					transform="matrix(1,0,0,1,0.345598,1.97279)" class="st1">
				<path d="M0 612 L108 612 L108 550.8 L97.2 540 L10.8 540 L0 550.8 L0 612 Z" class="st2"/>
			</g>
			<path d="M0 612 L108 612 L108 550.8 L97.2 540 L10.8 540 L0 550.8 L0 612 Z" class="st5"/>
			<text x="38.26" y="579" class="st4" v:langID="1033"><v:paragraph v:horizAlign="1"/><v:tabList/>Injector</text>		</g>
		<g id="shape41-105" v:mID="41" v:groupContext="shape" transform="translate(291.614,-378)">
			<title>Rounded Rectangle.41</title>
			<desc>Core</desc>
			<v:userDefs>
				<v:ud v:nameU="CTypeTopLeftSnip" v:prompt="" v:val="VT0(0):5"/>
				<v:ud v:nameU="CTypeTopRightSnip" v:prompt="" v:val="VT0(0):5"/>
				<v:ud v:nameU="CTypeBotLeftSnip" v:prompt="" v:val="VT0(0):5"/>
				<v:ud v:nameU="CTypeBotRightSnip" v:prompt="" v:val="VT0(0):5"/>
				<v:ud v:nameU="CornerLockHoriz" v:prompt="" v:val="VT0(1):5"/>
				<v:ud v:nameU="CornerLockVert" v:prompt="" v:val="VT0(1):5"/>
				<v:ud v:nameU="CornerLockDiag" v:prompt="" v:val="VT0(0):5"/>
				<v:ud v:nameU="TopLeftOffset" v:prompt="" v:val="VT0(0.15):1"/>
				<v:ud v:nameU="TopRightOffset" v:prompt="" v:val="VT0(0.15):1"/>
				<v:ud v:nameU="BotLeftOffset" v:prompt="" v:val="VT0(0.15):1"/>
				<v:ud v:nameU="BotRightOffset" v:prompt="" v:val="VT0(0.15):1"/>
				<v:ud v:nameU="visVersion" v:prompt="" v:val="VT0(15):26"/>
			</v:userDefs>
			<v:textBlock v:margins="rect(4,4,4,4)"/>
			<v:textRect cx="54" cy="576" width="108" height="72"/>
			<g id="shadow41-106" v:groupContext="shadow" v:shadowOffsetX="0.345598" v:shadowOffsetY="-1.97279" v:shadowType="1"
					transform="matrix(1,0,0,1,0.345598,1.97279)" class="st1">
				<path d="M10.8 612 L97.2 612 A10.7998 10.7998 -180 0 0 108 601.2 L108 550.8 A10.7998 10.7998 -180 0 0 97.2 540 L10.8
							 540 A10.7998 10.7998 -180 0 0 0 550.8 L0 601.2 A10.7998 10.7998 -180 0 0 10.8 612 Z" class="st2"/>
			</g>
			<path d="M10.8 612 L97.2 612 A10.7998 10.7998 -180 0 0 108 601.2 L108 550.8 A10.7998 10.7998 -180 0 0 97.2 540 L10.8
						 540 A10.7998 10.7998 -180 0 0 0 550.8 L0 601.2 A10.7998 10.7998 -180 0 0 10.8 612 Z" class="st5"/>
			<text x="44.47" y="579" class="st4" v:langID="1033"><v:paragraph v:horizAlign="1"/><v:tabList/>Core</text>		</g>
		<g id="shape44-111" v:mID="44" v:groupContext="shape" v:layerMember="0" transform="translate(345.614,-378)">
			<title>Dynamic connector.44</title>
			<path d="M0 612 L0 628.5 L-129.61 628.5 L-129.61 676.96" class="st6"/>
		</g>
		<g id="shape45-116" v:mID="45" v:groupContext="shape" v:layerMember="0" transform="translate(345.614,-378)">
			<title>Dynamic connector.45</title>
			<path d="M0 612 L0 628.5 L-264.61 628.5 L-264.61 676.96" class="st6"/>
		</g>
		<g id="shape46-121" v:mID="46" v:groupContext="shape" v:layerMember="0" transform="translate(432,-540)">
			<title>Dynamic connector.46</title>
			<path d="M0 612 L-86.39 612 L-86.39 694.96" class="st6"/>
		</g>
		<g id="shape47-126" v:mID="47" v:groupContext="shape" transform="translate(561.614,-378)">
			<title>Abgerundetes Rechteck</title>
			<desc>Extensions</desc>
			<v:userDefs>
				<v:ud v:nameU="CTypeTopLeftSnip" v:prompt="" v:val="VT0(0):5"/>
				<v:ud v:nameU="CTypeTopRightSnip" v:prompt="" v:val="VT0(0):5"/>
				<v:ud v:nameU="CTypeBotLeftSnip" v:prompt="" v:val="VT0(0):5"/>
				<v:ud v:nameU="CTypeBotRightSnip" v:prompt="" v:val="VT0(0):5"/>
				<v:ud v:nameU="CornerLockHoriz" v:prompt="" v:val="VT0(1):5"/>
				<v:ud v:nameU="CornerLockVert" v:prompt="" v:val="VT0(1):5"/>
				<v:ud v:nameU="CornerLockDiag" v:prompt="" v:val="VT0(0):5"/>
				<v:ud v:nameU="TopLeftOffset" v:prompt="" v:val="VT0(0.15748031496063):24"/>
				<v:ud v:nameU="TopRightOffset" v:prompt="" v:val="VT0(0.15748031496063):24"/>
				<v:ud v:nameU="BotLeftOffset" v:prompt="" v:val="VT0(0.15748031496063):24"/>
				<v:ud v:nameU="BotRightOffset" v:prompt="" v:val="VT0(0.15748031496063):24"/>
				<v:ud v:nameU="visVersion" v:prompt="" v:val="VT0(15):26"/>
				<v:ud v:nameU="TopLeftOffset" v:prompt="" v:val="VT0(0.15):1"/>
				<v:ud v:nameU="TopRightOffset" v:prompt="" v:val="VT0(0.15):1"/>
				<v:ud v:nameU="BotLeftOffset" v:prompt="" v:val="VT0(0.15):1"/>
				<v:ud v:nameU="BotRightOffset" v:prompt="" v:val="VT0(0.15):1"/>
			</v:userDefs>
			<v:textBlock v:margins="rect(4,4,4,4)"/>
			<v:textRect cx="54" cy="576" width="108" height="72"/>
			<g id="shadow47-127" v:groupContext="shadow" v:shadowOffsetX="0.345598" v:shadowOffsetY="-1.97279" v:shadowType="1"
					transform="matrix(1,0,0,1,0.345598,1.97279)" class="st1">
				<path d="M10.8 612 L97.2 612 A10.7998 10.7998 -180 0 0 108 601.2 L108 550.8 A10.7998 10.7998 -180 0 0 97.2 540 L10.8
							 540 A10.7998 10.7998 -180 0 0 0 550.8 L0 601.2 A10.7998 10.7998 -180 0 0 10.8 612 Z" class="st2"/>
			</g>
			<path d="M10.8 612 L97.2 612 A10.7998 10.7998 -180 0 0 108 601.2 L108 550.8 A10.7998 10.7998 -180 0 0 97.2 540 L10.8
						 540 A10.7998 10.7998 -180 0 0 0 550.8 L0 601.2 A10.7998 10.7998 -180 0 0 10.8 612 Z" class="st5"/>
			<text x="32.28" y="579" class="st4" v:langID="1031"><v:paragraph v:horizAlign="1"/><v:tabList/>Extensions</text>		</g>
		<g id="shape48-132" v:mID="48" v:groupContext="shape" v:layerMember="0" transform="translate(540,-540)">
			<title>Dynamic connector.48</title>
			<path d="M0 612 L75.61 612 L75.61 694.96" class="st6"/>
		</g>
		<g id="shape49-137" v:mID="49" v:groupContext="shape" transform="translate(432,-234)">
			<title>Snip Same Side Corner Rectangle.49</title>
			<desc>Extension Folders 1...n</desc>
			<v:userDefs>
				<v:ud v:nameU="CTypeTopLeftSnip" v:prompt="" v:val="VT0(1):5"/>
				<v:ud v:nameU="CTypeTopRightSnip" v:prompt="" v:val="VT0(1):5"/>
				<v:ud v:nameU="CTypeBotLeftSnip" v:prompt="" v:val="VT0(1):5"/>
				<v:ud v:nameU="CTypeBotRightSnip" v:prompt="" v:val="VT0(0):5"/>
				<v:ud v:nameU="CornerLockHoriz" v:prompt="" v:val="VT0(1):5"/>
				<v:ud v:nameU="CornerLockVert" v:prompt="" v:val="VT0(0):5"/>
				<v:ud v:nameU="CornerLockDiag" v:prompt="" v:val="VT0(0):5"/>
				<v:ud v:nameU="TopLeftOffset" v:prompt="" v:val="VT0(0.15):1"/>
				<v:ud v:nameU="TopRightOffset" v:prompt="" v:val="VT0(0.15):1"/>
				<v:ud v:nameU="BotLeftOffset" v:prompt="" v:val="VT0(0):1"/>
				<v:ud v:nameU="BotRightOffset" v:prompt="" v:val="VT0(0):1"/>
				<v:ud v:nameU="visVersion" v:prompt="" v:val="VT0(15):26"/>
			</v:userDefs>
			<v:textBlock v:margins="rect(4,4,4,4)"/>
			<v:textRect cx="54" cy="576" width="108" height="72"/>
			<g id="shadow49-138" v:groupContext="shadow" v:shadowOffsetX="0.345598" v:shadowOffsetY="-1.97279" v:shadowType="1"
					transform="matrix(1,0,0,1,0.345598,1.97279)" class="st1">
				<path d="M0 612 L108 612 L108 550.8 L97.2 540 L10.8 540 L0 550.8 L0 612 Z" class="st2"/>
			</g>
			<path d="M0 612 L108 612 L108 550.8 L97.2 540 L10.8 540 L0 550.8 L0 612 Z" class="st5"/>
			<text x="8.13" y="579" class="st4" v:langID="1031"><v:paragraph v:horizAlign="1"/><v:tabList/>Extension Folders 1...n</text>		</g>
		<g id="shape53-143" v:mID="53" v:groupContext="shape" v:layerMember="0" transform="translate(615.614,-378)">
			<title>Dynamic connector.53</title>
			<path d="M0 612 L0 638.25 L-129.61 638.25 L-129.61 676.96" class="st6"/>
		</g>
		<g id="shape57-148" v:mID="57" v:groupContext="shape" transform="translate(831.614,-378)">
			<title>Abgerundetes Rechteck.57</title>
			<desc>Assets</desc>
			<v:userDefs>
				<v:ud v:nameU="CTypeTopLeftSnip" v:prompt="" v:val="VT0(0):5"/>
				<v:ud v:nameU="CTypeTopRightSnip" v:prompt="" v:val="VT0(0):5"/>
				<v:ud v:nameU="CTypeBotLeftSnip" v:prompt="" v:val="VT0(0):5"/>
				<v:ud v:nameU="CTypeBotRightSnip" v:prompt="" v:val="VT0(0):5"/>
				<v:ud v:nameU="CornerLockHoriz" v:prompt="" v:val="VT0(1):5"/>
				<v:ud v:nameU="CornerLockVert" v:prompt="" v:val="VT0(1):5"/>
				<v:ud v:nameU="CornerLockDiag" v:prompt="" v:val="VT0(0):5"/>
				<v:ud v:nameU="TopLeftOffset" v:prompt="" v:val="VT0(0.15748031496063):24"/>
				<v:ud v:nameU="TopRightOffset" v:prompt="" v:val="VT0(0.15748031496063):24"/>
				<v:ud v:nameU="BotLeftOffset" v:prompt="" v:val="VT0(0.15748031496063):24"/>
				<v:ud v:nameU="BotRightOffset" v:prompt="" v:val="VT0(0.15748031496063):24"/>
				<v:ud v:nameU="visVersion" v:prompt="" v:val="VT0(15):26"/>
			</v:userDefs>
			<v:textBlock v:margins="rect(4,4,4,4)"/>
			<v:textRect cx="56.6929" cy="576" width="113.39" height="72"/>
			<g id="shadow57-149" v:groupContext="shadow" v:shadowOffsetX="0.345598" v:shadowOffsetY="-1.97279" v:shadowType="1"
					transform="matrix(1,0,0,1,0.345598,1.97279)" class="st1">
				<path d="M11.34 612 L102.05 612 A11.3384 11.3384 -180 0 0 113.39 600.66 L113.39 551.34 A11.3384 11.3384 -180 0 0
							 102.05 540 L11.34 540 A11.3384 11.3384 -180 0 0 0 551.34 L0 600.66 A11.3384 11.3384 -180 0 0 11.34 612
							 Z" class="st2"/>
			</g>
			<path d="M11.34 612 L102.05 612 A11.3384 11.3384 -180 0 0 113.39 600.66 L113.39 551.34 A11.3384 11.3384 -180 0 0 102.05
						 540 L11.34 540 A11.3384 11.3384 -180 0 0 0 551.34 L0 600.66 A11.3384 11.3384 -180 0 0 11.34 612 Z"
					class="st11"/>
			<text x="43.77" y="579" class="st4" v:langID="1031"><v:paragraph v:horizAlign="1"/><v:tabList/>Assets</text>		</g>
		<g id="shape58-154" v:mID="58" v:groupContext="shape" v:layerMember="0" transform="translate(540,-540)">
			<title>Dynamic connector.58</title>
			<path d="M0 612 L348.31 612 L348.31 694.96" class="st6"/>
		</g>
		<g id="shape60-159" v:mID="60" v:groupContext="shape" transform="translate(1107,-234)">
			<title>Snip Same Side Corner Rectangle.60</title>
			<desc>Precompiled Binaries</desc>
			<v:userDefs>
				<v:ud v:nameU="CTypeTopLeftSnip" v:prompt="" v:val="VT0(1):5"/>
				<v:ud v:nameU="CTypeTopRightSnip" v:prompt="" v:val="VT0(1):5"/>
				<v:ud v:nameU="CTypeBotLeftSnip" v:prompt="" v:val="VT0(1):5"/>
				<v:ud v:nameU="CTypeBotRightSnip" v:prompt="" v:val="VT0(0):5"/>
				<v:ud v:nameU="CornerLockHoriz" v:prompt="" v:val="VT0(1):5"/>
				<v:ud v:nameU="CornerLockVert" v:prompt="" v:val="VT0(0):5"/>
				<v:ud v:nameU="CornerLockDiag" v:prompt="" v:val="VT0(0):5"/>
				<v:ud v:nameU="TopLeftOffset" v:prompt="" v:val="VT0(0.15):1"/>
				<v:ud v:nameU="TopRightOffset" v:prompt="" v:val="VT0(0.15):1"/>
				<v:ud v:nameU="BotLeftOffset" v:prompt="" v:val="VT0(0):1"/>
				<v:ud v:nameU="BotRightOffset" v:prompt="" v:val="VT0(0):1"/>
				<v:ud v:nameU="visVersion" v:prompt="" v:val="VT0(15):26"/>
			</v:userDefs>
			<v:textBlock v:margins="rect(4,4,4,4)"/>
			<v:textRect cx="54" cy="576" width="108" height="72"/>
			<g id="shadow60-160" v:groupContext="shadow" v:shadowOffsetX="0.345598" v:shadowOffsetY="-1.97279" v:shadowType="1"
					transform="matrix(1,0,0,1,0.345598,1.97279)" class="st1">
				<path d="M0 612 L108 612 L108 550.8 L97.2 540 L10.8 540 L0 550.8 L0 612 Z" class="st2"/>
			</g>
			<path d="M0 612 L108 612 L108 550.8 L97.2 540 L10.8 540 L0 550.8 L0 612 Z" class="st9"/>
			<text x="11.05" y="579" class="st4" v:langID="1031"><v:paragraph v:horizAlign="1"/><v:tabList/>Precompiled Binaries</text>		</g>
		<g id="shape61-165" v:mID="61" v:groupContext="shape" v:layerMember="0" transform="translate(1026,-378)">
			<title>Dynamic connector.61</title>
			<path d="M0 612 L0 648 L135 648 L135 676.96" class="st6"/>
		</g>
		<g id="shape62-170" v:mID="62" v:groupContext="shape" transform="translate(567,-234)">
			<title>Rechteck, auf gleicher Seite liegende Ecken abgeschnitten</title>
			<desc>Configuration Files</desc>
			<v:userDefs>
				<v:ud v:nameU="CTypeTopLeftSnip" v:prompt="" v:val="VT0(1):5"/>
				<v:ud v:nameU="CTypeTopRightSnip" v:prompt="" v:val="VT0(1):5"/>
				<v:ud v:nameU="CTypeBotLeftSnip" v:prompt="" v:val="VT0(1):5"/>
				<v:ud v:nameU="CTypeBotRightSnip" v:prompt="" v:val="VT0(0):5"/>
				<v:ud v:nameU="CornerLockHoriz" v:prompt="" v:val="VT0(1):5"/>
				<v:ud v:nameU="CornerLockVert" v:prompt="" v:val="VT0(0):5"/>
				<v:ud v:nameU="CornerLockDiag" v:prompt="" v:val="VT0(0):5"/>
				<v:ud v:nameU="TopLeftOffset" v:prompt="" v:val="VT0(0.15748031496063):24"/>
				<v:ud v:nameU="TopRightOffset" v:prompt="" v:val="VT0(0.15748031496063):24"/>
				<v:ud v:nameU="BotLeftOffset" v:prompt="" v:val="VT0(0):24"/>
				<v:ud v:nameU="BotRightOffset" v:prompt="" v:val="VT0(0):24"/>
				<v:ud v:nameU="visVersion" v:prompt="" v:val="VT0(15):26"/>
				<v:ud v:nameU="TopLeftOffset" v:prompt="" v:val="VT0(0.15):1"/>
				<v:ud v:nameU="TopRightOffset" v:prompt="" v:val="VT0(0.15):1"/>
				<v:ud v:nameU="BotLeftOffset" v:prompt="" v:val="VT0(0):1"/>
				<v:ud v:nameU="BotRightOffset" v:prompt="" v:val="VT0(0):1"/>
			</v:userDefs>
			<v:textBlock v:margins="rect(4,4,4,4)"/>
			<v:textRect cx="54" cy="576" width="108" height="72"/>
			<g id="shadow62-171" v:groupContext="shadow" v:shadowOffsetX="0.345598" v:shadowOffsetY="-1.97279" v:shadowType="1"
					transform="matrix(1,0,0,1,0.345598,1.97279)" class="st1">
				<path d="M0 612 L108 612 L108 550.8 L97.2 540 L10.8 540 L0 550.8 L0 612 Z" class="st2"/>
			</g>
			<path d="M0 612 L108 612 L108 550.8 L97.2 540 L10.8 540 L0 550.8 L0 612 Z" class="st11"/>
			<text x="16.03" y="579" class="st4" v:langID="1031"><v:paragraph v:horizAlign="1"/><v:tabList/>Configuration Files</text>		</g>
		<g id="shape63-176" v:mID="63" v:groupContext="shape" transform="translate(702,-234)">
			<title>Rechteck, auf gleicher Seite liegende Ecken abgeschnitten.63</title>
			<desc>Application specific assets</desc>
			<v:userDefs>
				<v:ud v:nameU="CTypeTopLeftSnip" v:prompt="" v:val="VT0(1):5"/>
				<v:ud v:nameU="CTypeTopRightSnip" v:prompt="" v:val="VT0(1):5"/>
				<v:ud v:nameU="CTypeBotLeftSnip" v:prompt="" v:val="VT0(1):5"/>
				<v:ud v:nameU="CTypeBotRightSnip" v:prompt="" v:val="VT0(0):5"/>
				<v:ud v:nameU="CornerLockHoriz" v:prompt="" v:val="VT0(1):5"/>
				<v:ud v:nameU="CornerLockVert" v:prompt="" v:val="VT0(0):5"/>
				<v:ud v:nameU="CornerLockDiag" v:prompt="" v:val="VT0(0):5"/>
				<v:ud v:nameU="TopLeftOffset" v:prompt="" v:val="VT0(0.15748031496063):24"/>
				<v:ud v:nameU="TopRightOffset" v:prompt="" v:val="VT0(0.15748031496063):24"/>
				<v:ud v:nameU="BotLeftOffset" v:prompt="" v:val="VT0(0):24"/>
				<v:ud v:nameU="BotRightOffset" v:prompt="" v:val="VT0(0):24"/>
				<v:ud v:nameU="visVersion" v:prompt="" v:val="VT0(15):26"/>
				<v:ud v:nameU="TopLeftOffset" v:prompt="" v:val="VT0(0.15):1"/>
				<v:ud v:nameU="TopRightOffset" v:prompt="" v:val="VT0(0.15):1"/>
				<v:ud v:nameU="BotLeftOffset" v:prompt="" v:val="VT0(0):1"/>
				<v:ud v:nameU="BotRightOffset" v:prompt="" v:val="VT0(0):1"/>
			</v:userDefs>
			<v:textBlock v:margins="rect(4,4,4,4)"/>
			<v:textRect cx="54" cy="576" width="108" height="72"/>
			<g id="shadow63-177" v:groupContext="shadow" v:shadowOffsetX="0.345598" v:shadowOffsetY="-1.97279" v:shadowType="1"
					transform="matrix(1,0,0,1,0.345598,1.97279)" class="st1">
				<path d="M0 612 L108 612 L108 550.8 L97.2 540 L10.8 540 L0 550.8 L0 612 Z" class="st2"/>
			</g>
			<path d="M0 612 L108 612 L108 550.8 L97.2 540 L10.8 540 L0 550.8 L0 612 Z" class="st11"/>
			<text x="14.71" y="573" class="st4" v:langID="1031"><v:paragraph v:horizAlign="1"/><v:tabList/>Application specific <tspan
						x="41.58" dy="1.2em" class="st10">assets</tspan></text>		</g>
		<g id="shape65-183" v:mID="65" v:groupContext="shape" v:layerMember="0" transform="translate(888.307,-378)">
			<title>Dynamic connector.65</title>
			<path d="M0 612 L0 642.75 L-267.31 642.75 L-267.31 676.96" class="st6"/>
		</g>
		<g id="shape66-188" v:mID="66" v:groupContext="shape" v:layerMember="0" transform="translate(888.307,-378)">
			<title>Dynamic connector.66</title>
			<path d="M0 612 L0 642.75 L-132.31 642.75 L-132.31 676.96" class="st6"/>
		</g>
		<g id="shape68-193" v:mID="68" v:groupContext="shape" v:layerMember="0" transform="translate(492.307,-504)">
			<title>Dynamic connector.68</title>
			<path d="M-6.31 612 L-6.31 625.5 L-11.69 625.5 L-11.69 658.96" class="st6"/>
		</g>
	</g>
</svg>
