<?xml version="1.0" encoding="UTF-8" standalone="no"?>
<!DOCTYPE svg PUBLIC "-//W3C//DTD SVG 1.1//EN" "http://www.w3.org/Graphics/SVG/1.1/DTD/svg11.dtd">
<!-- Generated by Microsoft Visio, SVG Export Drawing2.svg Page-1 -->
<svg xmlns="http://www.w3.org/2000/svg" xmlns:xlink="http://www.w3.org/1999/xlink" xmlns:ev="http://www.w3.org/2001/xml-events"
		width="21.5in" height="8.5in" viewBox="0 0 1548 612" xml:space="preserve" color-interpolation-filters="sRGB" class="st8">
	<style type="text/css">
	<![CDATA[
		.st1 {fill:#4672c4;stroke:#c7c8c8;stroke-width:0.25}
		.st2 {fill:#feffff;font-family:Calibri;font-size:1.33333em}
		.st3 {font-size:1em}
		.st4 {marker-end:url(#mrkr4-19);stroke:#4672c4;stroke-linecap:round;stroke-linejoin:round;stroke-width:1}
		.st5 {fill:#4672c4;fill-opacity:1;stroke:#4672c4;stroke-opacity:1;stroke-width:0.28409090909091}
		.st6 {fill:#ffffff;stroke:none;stroke-linecap:butt}
		.st7 {fill:#3c63ac;font-family:Calibri;font-size:1.33333em}
		.st8 {fill:none;fill-rule:evenodd;font-size:12px;overflow:visible;stroke-linecap:square;stroke-miterlimit:3}
	]]>
	</style>

	<defs id="Markers">
		<g id="lend4">
			<path d="M 2 1 L 0 0 L 2 -1 L 2 1 " style="stroke:none"/>
		</g>
		<marker id="mrkr4-19" class="st5" refX="-7.04" orient="auto" markerUnits="strokeWidth" overflow="visible">
			<use xlink:href="#lend4" transform="scale(-3.52,-3.52) "/>
		</marker>
	</defs>
	<g>
		<title>Page-1</title>
		<g id="shape1-1" transform="translate(562.5,-4.83987)">
			<title>Snip Same Side Corner Rectangle</title>
			<desc>Modul B</desc>
			<path d="M0 612 L204.76 612 L204.76 495.97 L184.29 475.49 L20.48 475.49 L0 495.97 L0 612 Z" class="st1"/>
			<text x="74.92" y="548.55" class="st2">Modul B</text>		</g>
		<g id="shape2-4" transform="translate(893.238,-448.492)">
			<title>Rectangle</title>
			<desc>Modul Interface</desc>
			<rect x="0" y="475.492" width="204.762" height="136.508" class="st1"/>
			<text x="49.97" y="548.55" class="st2">Modul Interface</text>		</g>
		<g id="shape3-7" transform="translate(562.5,-448.492)">
			<title>Snip Same Side Corner Rectangle.3</title>
			<desc>Modul A</desc>
			<path d="M0 612 L204.76 612 L204.76 495.97 L184.29 475.49 L20.48 475.49 L0 495.97 L0 612 Z" class="st1"/>
			<text x="74.64" y="548.55" class="st2">Modul A</text>		</g>
		<g id="shape4-10" transform="translate(562.5,-213.394)">
			<title>Rectangle.4</title>
			<desc>Spezialisiertes Modul Interface</desc>
			<rect x="0" y="475.492" width="204.762" height="136.508" class="st1"/>
			<text x="33.39" y="538.95" class="st2">Spezialisiertes Modul <tspan x="73.08" dy="1.2em" class="st3">Interface</tspan></text>		</g>
		<g id="shape6-14" transform="translate(655.881,-141.348)">
			<title>Dynamic connector</title>
			<desc>Implementiert</desc>
			<path d="M9 612 L9 546.99" class="st4"/>
			<rect x="-37.9648" y="566.377" width="93.9295" height="19.2005" class="st6"/>
			<text x="-37.96" y="580.78" class="st7">Implementiert</text>		</g>
		<g id="shape7-22" transform="translate(655.881,-448.492)">
			<title>Dynamic connector.7</title>
			<desc>Abhängig auf</desc>
			<path d="M9 612 L9 703.55" class="st4"/>
			<rect x="-33.7226" y="651.695" width="85.4451" height="19.2005" class="st6"/>
			<text x="-33.72" y="666.1" class="st7">Abhängig auf</text>		</g>
		<g id="shape9-29" transform="translate(767.262,-281.648)">
			<title>Dynamic connector.9</title>
			<desc>Implementiert</desc>
			<path d="M0 612 L228.36 612 L228.36 452.2" class="st4"/>
			<rect x="150.635" y="602.4" width="93.9295" height="19.2005" class="st6"/>
			<text x="150.64" y="616.8" class="st7">Implementiert</text>		</g>
		<g id="shape10-36" transform="translate(767.262,-507.746)">
			<title>Dynamic connector.10</title>
			<desc>Implementiert</desc>
			<path d="M0 603 L118.94 603" class="st4"/>
			<rect x="16.0228" y="593.4" width="93.9295" height="19.2005" class="st6"/>
			<text x="16.02" y="607.8" class="st7">Implementiert</text>		</g>
		<g id="shape11-43" transform="translate(27,-448.492)">
			<title>Rectangle.11</title>
			<desc>Erweiterungs Interface</desc>
			<rect x="0" y="475.492" width="204.762" height="136.508" class="st1"/>
			<text x="28.29" y="548.55" class="st2">Erweiterungs Interface</text>		</g>
		<g id="shape12-46" transform="translate(27,-213.394)">
			<title>Rounded Rectangle</title>
			<desc>Erweiterung A</desc>
			<path d="M20.48 612 L184.29 612 A20.4759 20.4759 -180 0 0 204.76 591.52 L204.76 495.97 A20.4759 20.4759 -180 0 0 184.29
						 475.49 L20.48 475.49 A20.4759 20.4759 -180 0 0 0 495.97 L0 591.52 A20.4759 20.4759 -180 0 0 20.48 612 Z"
					class="st1"/>
			<text x="56.09" y="548.55" class="st2">Erweiterung A</text>		</g>
		<g id="shape13-49" transform="translate(290.25,-349.902)">
			<title>Circle</title>
			<desc>Erweiterungspunkt “Beispiel”</desc>
			<path d="M0 535.21 A76.7859 76.7859 0 0 1 153.57 535.21 A76.7859 76.7859 0 1 1 0 535.21 Z" class="st1"/>
			<text x="14.88" y="540.01" class="st2">Erweiterungspunkt <tspan x="44.94" dy="1.2em" class="st3">“Beispiel”</tspan></text>		</g>
		<g id="shape14-53" transform="translate(120.381,-349.902)">
			<title>Dynamic connector.14</title>
			<desc>Implementiert</desc>
			<path d="M9 612 L9 520.45" class="st4"/>
			<rect x="-37.9648" y="553.105" width="93.9295" height="19.2005" class="st6"/>
			<text x="-37.96" y="567.51" class="st7">Implementiert</text>		</g>
		<g id="shape15-60" transform="translate(562.5,-516.746)">
			<title>Dynamic connector.15</title>
			<desc>Definiert</desc>
			<path d="M0 612 L-13.5 612 L-13.5 702.06 L-111.64 702.06" class="st4"/>
			<rect x="-42.9782" y="692.458" width="57.336" height="19.2005" class="st6"/>
			<text x="-42.98" y="706.86" class="st7">Definiert</text>		</g>
		<g id="shape16-67" transform="translate(231.762,-281.648)">
			<title>Dynamic connector.16</title>
			<desc>Registriert sich bei</desc>
			<path d="M0 612 L13.5 612 L13.5 466.96 L51.45 466.96" class="st4"/>
			<rect x="-46.4961" y="514.136" width="119.992" height="19.2005" class="st6"/>
			<text x="-46.5" y="528.54" class="st7">Registriert sich bei</text>		</g>
	</g>
</svg>
